<?xml version="1.0" encoding="UTF-8"?>
<svg width="24px" height="24px" viewBox="0 0 24 24" version="1.1" xmlns="http://www.w3.org/2000/svg" xmlns:xlink="http://www.w3.org/1999/xlink">
    <title>智能分析</title>
    <g id="页面-1" stroke="none" stroke-width="1" fill="none" fill-rule="evenodd">
        <g id="视频应用-服务器实时巡检备份" transform="translate(-713.000000, -9.000000)" fill="#EBEFFF">
            <g id="item" transform="translate(681.000000, 0.000000)">
                <g id="智能分析" transform="translate(32.000000, 9.000000)">
                    <path d="M17.085097,3.02938828 C20.1988952,4.85489602 21.5688677,8.63055292 20.7175842,12.2364528 L20.662018,12.1339746 C19.0051637,9.26421886 15.3356213,8.28096792 12.4658656,9.93782217 C9.59610982,11.5946764 8.61285889,15.2642189 10.2697131,18.1339746 C11.2589904,19.8474531 12.965804,20.8883803 14.7914809,21.0963424 C13.6290734,21.3417836 12.3012557,21.5920089 10.9410153,21.8418365 L10.3845705,21.9437331 C10.2916407,21.9607085 10.1986441,21.9776793 10.1056222,21.9946441 C9.43263481,22.1173798 9.99950618,20.0888166 9.30119945,20.203094 C8.87213407,20.2733103 7.60143578,20.4295668 5.48910459,20.6718636 C5.21478845,20.7032661 4.96690978,20.506402 4.93544493,20.232093 C4.93327547,20.2131798 4.93218809,20.1941581 4.93218809,20.1751209 L4.9314601,16.2860715 L3.4084601,16.2866041 C3.13231773,16.2866041 2.9084601,16.0627465 2.9084601,15.7866041 C2.9084601,15.7028875 2.92948042,15.620511 2.96959303,15.5470301 L4.61991736,12.5229129 C4.33160089,10.573786 4.6854981,8.46740826 5.76417664,6.57039971 C8.16124007,2.35482515 13.2297514,0.769525081 17.085097,3.02938828 Z" id="Combined-Shape" opacity="0.65"></path>
                    <path d="M13.2158656,11.7368603 C15.1290361,10.6322908 17.5753977,11.2877914 18.6799672,13.2009619 C19.6117498,14.8148567 19.2910458,16.8081767 18.0194435,18.0553787 L19.581891,20.7631397 L17.8498402,21.7631397 L16.2870736,19.0558617 C14.570897,19.5340581 12.6837275,18.8151701 11.7517639,17.2009619 C10.6471944,15.2877914 11.3026951,12.8414298 13.2158656,11.7368603 Z M14.2158656,13.4689111 C13.2592803,14.0211958 12.93153,15.2443766 13.4838148,16.2009619 C14.0360995,17.1575471 15.2592803,17.4852975 16.2158656,16.9330127 C17.1724508,16.380728 17.5002011,15.1575471 16.9479164,14.2009619 C16.3956316,13.2443766 15.1724508,12.9166263 14.2158656,13.4689111 Z" id="Shape" opacity="0.38"></path>
                </g>
            </g>
        </g>
    </g>
</svg>