<?xml version="1.0" standalone="no"?><!DOCTYPE svg PUBLIC "-//W3C//DTD SVG 1.1//EN" "http://www.w3.org/Graphics/SVG/1.1/DTD/svg11.dtd"><svg t="1600941416060" class="icon" viewBox="0 0 1024 1024" version="1.1" xmlns="http://www.w3.org/2000/svg" p-id="4519" xmlns:xlink="http://www.w3.org/1999/xlink" width="64" height="64"><defs><style type="text/css"></style></defs><path d="M512 64c247.424 0 448 200.576 448 448S759.424 960 512 960 64 759.424 64 512 264.576 64 512 64z m0 96c-194.4 0-352 157.6-352 352s157.6 352 352 352 352-157.6 352-352-157.6-352-352-352z m203.648 193.6a16 16 0 0 1 0 22.64L579.888 512l135.76 135.76a16 16 0 0 1 0 22.624l-45.264 45.264a16 16 0 0 1-22.624 0L512 579.888l-135.76 135.76a16 16 0 0 1-22.624 0l-45.264-45.264a16 16 0 0 1 0-22.624L444.112 512l-135.76-135.76a16 16 0 0 1 0-22.624l45.264-45.264a16 16 0 0 1 22.624 0L512 444.112l135.76-135.76a16 16 0 0 1 22.624 0l45.264 45.264z" p-id="4520"></path></svg>