<?xml version="1.0" standalone="no"?><!DOCTYPE svg PUBLIC "-//W3C//DTD SVG 1.1//EN" "http://www.w3.org/Graphics/SVG/1.1/DTD/svg11.dtd"><svg t="1600947373380" class="icon" viewBox="0 0 1024 1024" version="1.1" xmlns="http://www.w3.org/2000/svg" p-id="4799" xmlns:xlink="http://www.w3.org/1999/xlink" width="64" height="64"><defs><style type="text/css"></style></defs><path d="M371.04 584.848a16 16 0 0 1 19.616 0l1.504 1.328 45.264 45.248 1.328 1.52a16 16 0 0 1 0 19.6l-1.328 1.52-163.696 163.68 96.608 96.592a8 8 0 0 1-4.208 13.536l-1.44 0.128H112a16 16 0 0 1-15.888-14.128L96 912V659.312a8 8 0 0 1 12.544-6.576l1.12 0.928 96.192 96.208 163.68-163.696 1.504-1.328z m260.384 1.328a16 16 0 0 1 21.12-1.328l1.52 1.328L817.92 750.064l96.4-96.4a8 8 0 0 1 13.536 4.208l0.128 1.44V912a16 16 0 0 1-14.128 15.888L912 928H659.312a8 8 0 0 1-6.576-12.544l0.928-1.12 96.384-96.384-163.872-163.888a16 16 0 0 1-1.328-21.12l1.328-1.52 45.248-45.248zM364.688 96a8 8 0 0 1 5.648 13.664l-96.608 96.592 163.68 163.68a16 16 0 0 1 1.344 21.12l-1.328 1.52-45.264 45.248a16 16 0 0 1-21.12 1.328l-1.504-1.328-163.68-163.696-96.192 96.208A8 8 0 0 1 96 364.688V112a16 16 0 0 1 16-16h252.688zM912 96a16 16 0 0 1 16 16v252.688a8 8 0 0 1-13.664 5.648l-96.4-96.4L654.08 437.824a16 16 0 0 1-22.64 0l-45.248-45.248a16 16 0 0 1 0-22.64l163.872-163.888-96.384-96.384A8 8 0 0 1 659.312 96H912z" p-id="4800"></path></svg>