<?xml version="1.0" standalone="no"?><!DOCTYPE svg PUBLIC "-//W3C//DTD SVG 1.1//EN" "http://www.w3.org/Graphics/SVG/1.1/DTD/svg11.dtd"><svg t="1577773956397" class="icon" viewBox="0 0 1024 1024" version="1.1" xmlns="http://www.w3.org/2000/svg" p-id="1906" xmlns:xlink="http://www.w3.org/1999/xlink" width="200" height="200"><defs><style type="text/css"></style></defs><path d="M657.92 353.472L370.752 258.24a21.312 21.312 0 0 0-9.28-0.96l-4.608 1.088L99.52 350.08a21.312 21.312 0 0 0-13.76 15.68L85.312 370.112v540.16a21.312 21.312 0 0 0 22.912 21.312l4.288-0.768 245.632-70.016a21.312 21.312 0 0 1 7.552-0.768l3.776 0.64 288.256 76.544c2.304 0.64 4.672 0.832 7.04 0.64l3.456-0.512 254.08-60.992a21.312 21.312 0 0 0 15.808-16l0.512-4.8V333.056a21.312 21.312 0 0 0-20.608-21.312l-4.288 0.256-245.504 42.24a21.312 21.312 0 0 1-6.912 0l-3.392-0.832L370.752 258.304l287.168 95.104z m-293.12-7.296l266.24 88.256c16.64 5.504 34.368 6.848 51.648 3.84L853.312 408.96v396.224l-189.312 45.44-272.64-72.32a106.688 106.688 0 0 0-56.64 0.512l-164.096 46.72v-410.24l194.112-69.12z" fill="#EBEFFF" fill-opacity=".38" p-id="1907"></path><path d="M364.736 346.176l266.304 88.256c16.64 5.504 34.368 6.848 51.648 3.84L853.312 408.96v396.224l-189.312 45.44-272.64-72.32a106.688 106.688 0 0 0-56.64 0.512l-164.096 46.72v-410.24l194.112-69.12z" fill="#EBEFFF" fill-opacity=".12" p-id="1908"></path><path d="M554.624 85.312a212.928 212.928 0 0 1 205.888 268.416 211.072 211.072 0 0 1-68.992 107.136L553.728 592.192 414.912 458.432A213.76 213.76 0 0 1 348.928 354.112 212.928 212.928 0 0 1 554.688 85.312z" fill="#676D87" p-id="1909"></path><path d="M636.864 395.328a128.64 128.64 0 0 0 41.344-64.064 127.616 127.616 0 0 0-123.52-160.64 127.616 127.616 0 0 0-123.52 160.896c3.072 11.264 7.744 22.016 13.824 32 6.912 11.392 15.616 21.632 29.184 33.536l79.936 76.992 82.752-78.72z" fill="#2F3655" p-id="1910"></path><path d="M554.624 298.624m-64 0a64 64 0 1 0 128 0 64 64 0 1 0-128 0Z" fill="#EBEFFF" opacity=".38" p-id="1911"></path></svg>