<?xml version="1.0" standalone="no"?><!DOCTYPE svg PUBLIC "-//W3C//DTD SVG 1.1//EN" "http://www.w3.org/Graphics/SVG/1.1/DTD/svg11.dtd"><svg t="1577672537938" class="icon" viewBox="0 0 1024 1024" version="1.1" xmlns="http://www.w3.org/2000/svg" p-id="2352" xmlns:xlink="http://www.w3.org/1999/xlink" width="200" height="200"><defs><style type="text/css"></style></defs><path d="M844.629333 709.632a12.8 12.8 0 0 1 0.170667 2.133333v159.914667a12.8 12.8 0 0 1-9.941333 12.501333l-160.426667 36.821334a12.8 12.8 0 0 1-5.12 0.128l-115.541333-20.650667 163.797333-182.912 112.341333-18.474667a12.8 12.8 0 0 1 14.72 10.538667z m-558.165333-12.8l164.650667 185.301333-43.392-7.722666a12.8 12.8 0 0 0-4.864 0.042666l-208.213334 43.904a12.8 12.8 0 0 1-15.445333-12.544v-170.88a12.8 12.8 0 0 1 9.557333-12.373333l97.706667-25.685333zM512 102.4c169.642667 0 307.2 139.690667 307.2 312.021333a312.874667 312.874667 0 0 1-104.149333 234.154667l-204.373334 221.824-208.426666-228.010667a312.576 312.576 0 0 1-86.528-145.194666 317.013333 317.013333 0 0 1-10.922667-82.773334C204.8 242.090667 342.357333 102.4 512 102.4zM512 256a153.6 153.6 0 1 0 0 307.2A153.6 153.6 0 0 0 512 256z" p-id="2353"></path></svg>