<?xml version="1.0" standalone="no"?><!DOCTYPE svg PUBLIC "-//W3C//DTD SVG 1.1//EN" "http://www.w3.org/Graphics/SVG/1.1/DTD/svg11.dtd"><svg t="1600935427012" class="icon" viewBox="0 0 1024 1024" version="1.1" xmlns="http://www.w3.org/2000/svg" p-id="4238" xmlns:xlink="http://www.w3.org/1999/xlink" width="64" height="64"><defs><style type="text/css"></style></defs><path d="M288 736V896h-128a32 32 0 0 1-32-32v-128h160z m608 0v128a32 32 0 0 1-32 32h-128v-160H896z m-416 0V896h-128v-160h128z m192 0V896h-128v-160h128z m-384-192v128H128v-128h160z m608 0v128h-160v-128H896z m-416 0v128h-128v-128h128z m192 0v128h-128v-128h128z m-384-192v128H128v-128h160z m608 0v128h-160v-128H896z m-416 0v128h-128v-128h128z m192 0v128h-128v-128h128zM288 128v160H128v-128a32 32 0 0 1 32-32h128z m192 0v160h-128V128h128z m192 0v160h-128V128h128z m192 0a32 32 0 0 1 32 32v128h-160V128h128z" p-id="4239"></path></svg>