<?xml version="1.0" standalone="no"?><!DOCTYPE svg PUBLIC "-//W3C//DTD SVG 1.1//EN" "http://www.w3.org/Graphics/SVG/1.1/DTD/svg11.dtd"><svg t="1600941402627" class="icon" viewBox="0 0 1024 1024" version="1.1" xmlns="http://www.w3.org/2000/svg" p-id="4379" xmlns:xlink="http://www.w3.org/1999/xlink" width="64" height="64"><defs><style type="text/css"></style></defs><path d="M426.112 581.488a16 16 0 0 1 15.888 14.144l0.112 1.856v252.688a8 8 0 0 1-12.56 6.576l-1.104-0.912-96.192-96.224-163.68 163.696-1.52 1.328a16 16 0 0 1-19.6 0l-1.52-1.328-45.248-45.248-1.328-1.52a16 16 0 0 1 0-19.6l1.328-1.52 163.68-163.68-96.608-96.592a8 8 0 0 1 4.224-13.536l1.44-0.128h252.688z m424.064 0a8 8 0 0 1 6.576 12.544l-0.912 1.12-96.4 96.384 163.872 163.888a16 16 0 0 1 1.328 21.12l-1.328 1.52-45.248 45.248a16 16 0 0 1-21.12 1.328l-1.52-1.328-163.872-163.888-96.4 96.416a8 8 0 0 1-13.536-4.224l-0.128-1.44V597.488a16 16 0 0 1 14.144-15.888l1.856-0.112h252.688zM167.056 99.36l1.52 1.328 163.68 163.68 96.192-96.208a8 8 0 0 1 13.664 5.664v252.688a16 16 0 0 1-16 16H173.424a8 8 0 0 1-5.664-13.664l96.624-96.592-163.696-163.68a16 16 0 0 1-1.328-21.12l1.328-1.52L145.92 100.688a16 16 0 0 1 21.12-1.328z m711.008 1.328l45.248 45.248a16 16 0 0 1 0 22.64L759.44 332.464l96.4 96.384a8 8 0 0 1-5.664 13.664H597.488a16 16 0 0 1-16-16V173.824a8 8 0 0 1 13.664-5.664l96.4 96.416L855.424 100.688a16 16 0 0 1 22.64 0z" p-id="4380"></path></svg>