<?xml version="1.0" standalone="no"?><!DOCTYPE svg PUBLIC "-//W3C//DTD SVG 1.1//EN" "http://www.w3.org/Graphics/SVG/1.1/DTD/svg11.dtd"><svg t="1600935432251" class="icon" viewBox="0 0 1024 1024" version="1.1" xmlns="http://www.w3.org/2000/svg" p-id="4378" xmlns:xlink="http://www.w3.org/1999/xlink" width="64" height="64"><defs><style type="text/css"></style></defs><path d="M597.312 426.688v170.624H426.688V426.688h170.624z m85.376 0H896v170.624h-213.312V426.688zM597.312 896H426.688v-213.312h170.624V896z m85.376 0v-213.312H896V864a32 32 0 0 1-32 32h-181.312zM597.312 128v213.312H426.688V128h170.624z m85.376 0H864a32 32 0 0 1 32 32v181.312h-213.312V128zM341.312 426.688v170.624H128V426.688h213.312z m0 469.312H160a32 32 0 0 1-32-32v-181.312h213.312V896z m0-768v213.312H128V160a32 32 0 0 1 32-32h181.312z" p-id="4379"></path></svg>