<?xml version="1.0" standalone="no"?><!DOCTYPE svg PUBLIC "-//W3C//DTD SVG 1.1//EN" "http://www.w3.org/Graphics/SVG/1.1/DTD/svg11.dtd"><svg t="1577671153806" class="icon" viewBox="0 0 1024 1024" version="1.1" xmlns="http://www.w3.org/2000/svg" p-id="2129" xmlns:xlink="http://www.w3.org/1999/xlink" width="200" height="200"><defs><style type="text/css"></style></defs><path d="M908.8 358.4a12.8 12.8 0 0 1 12.8 12.8v435.2a12.8 12.8 0 0 1-12.8 12.8H115.2a12.8 12.8 0 0 1-12.8-12.8V371.2a12.8 12.8 0 0 1 12.8-12.8h793.6z m-192 307.2h-102.4V768h102.4v-102.4z m153.6 0H768V768h102.4v-102.4z m-512-256H153.6V512h204.8V409.6z" p-id="2130"></path><path d="M870.4 256v51.2H153.6V256h716.8z m-51.2-102.4v51.2H204.8V153.6h614.4z" p-id="2131"></path></svg>