<?xml version="1.0" standalone="no"?><!DOCTYPE svg PUBLIC "-//W3C//DTD SVG 1.1//EN" "http://www.w3.org/Graphics/SVG/1.1/DTD/svg11.dtd"><svg t="1579141762831" class="icon" viewBox="0 0 1024 1024" version="1.1" xmlns="http://www.w3.org/2000/svg" p-id="1743" xmlns:xlink="http://www.w3.org/1999/xlink" width="200" height="200"><defs><style type="text/css"></style></defs><path d="M512 102.4a358.4 358.4 0 1 1 0 716.8 358.4 358.4 0 0 1 0-716.8z m0 256a204.8 204.8 0 1 0 0 409.6 204.8 204.8 0 0 0 0-409.6z m0 102.4a102.4 102.4 0 1 1 0 204.8 102.4 102.4 0 0 1 0-204.8z" p-id="1744"></path><path d="M764.032 783.701333l48.128 120.32a12.8 12.8 0 0 1-11.861333 17.578667H223.701333a12.8 12.8 0 0 1-11.861333-17.536l48.128-120.362667A407.850667 407.850667 0 0 0 512 870.4a407.850667 407.850667 0 0 0 252.032-86.698667z" p-id="1745"></path></svg>