<?xml version="1.0" standalone="no"?><!DOCTYPE svg PUBLIC "-//W3C//DTD SVG 1.1//EN" "http://www.w3.org/Graphics/SVG/1.1/DTD/svg11.dtd"><svg t="1600942109035" class="icon" viewBox="0 0 1024 1024" version="1.1" xmlns="http://www.w3.org/2000/svg" p-id="4659" xmlns:xlink="http://www.w3.org/1999/xlink" width="64" height="64"><defs><style type="text/css"></style></defs><path d="M391.088 488.32l75.456 96.896-81.28 104.384A183.136 183.136 0 0 1 416 791.456c0 101.616-82.384 184-184 184S48 893.072 48 791.456s82.384-184 184-184c18.192 0 35.776 2.64 52.368 7.568l106.72-126.704z m424.8-429.76a48.08 48.08 0 0 1 10.112 64.96l-1.792 2.464-238.528 306.24 153.984 182.784a184.048 184.048 0 0 1 52.336-7.552c101.616 0 184 82.384 184 184s-82.384 184-184 184S608 893.072 608 791.456c0-37.664 11.328-72.704 30.752-101.872L199.824 125.984a48.08 48.08 0 0 1 8.32-67.424 49.808 49.808 0 0 1 68.768 7.152L512 344.8 747.12 65.712a49.808 49.808 0 0 1 68.752-7.152zM232 703.456a88 88 0 1 0 0 176 88 88 0 0 0 0-176z m560 0a88 88 0 1 0 0 176 88 88 0 0 0 0-176z" p-id="4660"></path></svg>