<?xml version="1.0" encoding="UTF-8"?>
<svg width="16px" height="16px" viewBox="0 0 16 16" version="1.1" xmlns="http://www.w3.org/2000/svg" xmlns:xlink="http://www.w3.org/1999/xlink">
    <title>服务器icon</title>
    <g id="页面-1" stroke="none" stroke-width="1" fill="none" fill-rule="evenodd">
        <g id="视频应用-服务器实时巡检备份" transform="translate(-24.000000, -257.000000)">
            <g id="服务器icon" transform="translate(24.000000, 257.000000)">
                <rect id="矩形" fill="#D8D8D8" opacity="0" x="0" y="0" width="16" height="16"></rect>
                <rect id="矩形" fill-opacity="0.116786" fill="#FFFFFF" x="1.33333333" y="0.666666667" width="13.3333333" height="6.66666667"></rect>
                <rect id="矩形备份" fill-opacity="0.116786" fill="#FFFFFF" x="1.33333333" y="8.66666667" width="13.3333333" height="6.66666667"></rect>
                <path d="M14.6666667,0.666666667 L14.6666667,7.33333333 L1.33333333,7.33333333 L1.33333333,0.666666667 L14.6666667,0.666666667 Z M13.333,2 L2.666,2 L2.666,6 L13.333,6 L13.333,2 Z" id="矩形" fill-opacity="0.65" fill="#FFFFFF" fill-rule="nonzero"></path>
                <path d="M14.6666667,8.66666667 L14.6666667,15.3333333 L1.33333333,15.3333333 L1.33333333,8.66666667 L14.6666667,8.66666667 Z M13.333,10 L2.666,10 L2.666,14 L13.333,14 L13.333,10 Z" id="矩形备份" fill-opacity="0.65" fill="#FFFFFF" fill-rule="nonzero"></path>
                <rect id="矩形" fill-opacity="0.56" fill="#FFFFFF" x="4" y="3.33333333" width="2.66666667" height="1.33333333"></rect>
                <rect id="矩形备份-2" fill-opacity="0.56" fill="#FFFFFF" x="4" y="11.3333333" width="2.66666667" height="1.33333333"></rect>
            </g>
        </g>
    </g>
</svg>