<?xml version="1.0" encoding="UTF-8"?>
<svg width="24px" height="24px" viewBox="0 0 24 24" version="1.1" xmlns="http://www.w3.org/2000/svg" xmlns:xlink="http://www.w3.org/1999/xlink">
    <title>系统管理</title>
    <g id="页面-1" stroke="none" stroke-width="1" fill="none" fill-rule="evenodd">
        <g id="视频应用-服务器实时巡检备份" transform="translate(-921.000000, -9.000000)" fill="#EBEFFF">
            <g id="编组-2" transform="translate(889.000000, 0.000000)">
                <g id="系统管理" transform="translate(32.000000, 9.000000)">
                    <path d="M19,12.5 L18.9997565,13.6259548 C19.3668772,13.7204204 19.7136031,13.8656941 20.031992,14.0538336 L20.8284271,13.2573593 L22.2426407,14.6715729 L21.4461664,15.468008 C21.6343059,15.7863969 21.7795796,16.1331228 21.8740452,16.5002435 L23,16.5 L23,18.5 L21.8737865,18.5007613 C21.7793145,18.8675098 21.6341343,19.2138936 21.4461664,19.531992 L22.2426407,20.3284271 L20.8284271,21.7426407 L20.031992,20.9461664 C19.7136031,21.1343059 19.3668772,21.2795796 18.9997565,21.3740452 L19,22.5 L17,22.5 L16.9992387,21.3737865 C16.6324902,21.2793145 16.2861064,21.1341343 15.968008,20.9461664 L15.1715729,21.7426407 L13.7573593,20.3284271 L14.5538336,19.531992 C14.3658657,19.2138936 14.2206855,18.8675098 14.1262135,18.5007613 L13,18.5 L13,16.5 L14.1259548,16.5002435 C14.2204204,16.1331228 14.3656941,15.7863969 14.5538336,15.468008 L13.7573593,14.6715729 L15.1715729,13.2573593 L15.968008,14.0538336 C16.2861064,13.8658657 16.6324902,13.7206855 16.9992387,13.6262135 L17,12.5 L19,12.5 Z M18,15.5 C16.8954305,15.5 16,16.3954305 16,17.5 C16,18.6045695 16.8954305,19.5 18,19.5 C19.1045695,19.5 20,18.6045695 20,17.5 C20,16.3954305 19.1045695,15.5 18,15.5 Z" id="Combined-Shape" opacity="0.38"></path>
                    <path d="M11.8883064,1.5 C15.1710129,1.5 17,3.63695187 17,6.49990504 L17,8.64273166 C17,9.4627095 16.8346989,10.1061874 16.5989783,10.6407056 C13.4044661,11.2890708 11,14.1137388 11,17.5 C11,18.9873919 11.4639045,20.3664331 12.2549186,21.5003287 L2.54019285,21.4996439 C1.76343016,21.4996439 1.16759909,21.4996439 1.05924689,21.091642 C1.0494266,21.0690598 1.04459893,21.0412243 1.04459893,21.0090584 C0.773909526,19.8867169 1.77088715,17.688541 3.07377495,16.8639476 C5.29623278,15.4573614 8.78947909,15.7854396 8.78947909,13.6426367 C8.78947909,12.2140856 6.73858865,11.4998101 6.77634976,8.64273166 L6.77634976,6.49990504 C6.73856472,3.64280291 8.56757571,1.5 11.8883064,1.5 Z" id="Combined-Shape" opacity="0.65"></path>
                </g>
            </g>
        </g>
    </g>
</svg>