<?xml version="1.0" standalone="no"?><!DOCTYPE svg PUBLIC "-//W3C//DTD SVG 1.1//EN" "http://www.w3.org/Graphics/SVG/1.1/DTD/svg11.dtd"><svg t="1577691537049" class="icon" viewBox="0 0 1024 1024" version="1.1" xmlns="http://www.w3.org/2000/svg" p-id="1739" xmlns:xlink="http://www.w3.org/1999/xlink" width="200" height="200"><defs><style type="text/css"></style></defs><path d="M261.802667 751.488l-0.768-0.426667-0.512-0.256 0.213333 0.085334 0.298667 0.170666 0.853333 0.426667 4.010667 2.133333 2.986666 1.450667-6.997333-3.584-1.152-0.597333-0.554667-0.256-11.221333-6.357334a277.674667 277.674667 0 0 1-56.533333-44.672l1.194666 1.194667-99.754666 57.6-64.896-112.341333 97.749333-56.448-0.341333-1.066667a267.648 267.648 0 0 1-11.861334-82.048v-1.408l-107.946666-28.885333 33.621333-125.354667 107.946667 28.928-0.469334 0.853333 6.912-11.861333A267.989333 267.989333 0 0 1 200.106667 313.472l0.853333-0.768-56.490667-97.749333 112.384-64.853334 57.6 99.712-1.621333 0.426667a277.76 277.76 0 0 1 85.077333-10.24h-1.28L426.666667 127.658667l125.354666 33.578666-30.122666 112.256-1.28-0.64 11.306666 6.314667a277.76 277.76 0 0 1 46.293334 34.346667l9.941333 9.6 99.754667-57.6 28.885333 50.048v83.114666l-61.738667 35.669334 0.298667 1.066666c8.533333 27.733333 12.672 57.002667 11.776 86.741334l0.085333-3.328 49.578667 13.269333v134.357333l-83.157333-22.272 1.28-2.432a267.52 267.52 0 0 1-53.248 68.736l-0.853334 0.768 56.490667 97.749334-112.426667 64.853333-57.6-99.712 1.621334-0.426667a277.76 277.76 0 0 1-86.186667 10.197334l2.389333 0.085333-30.037333 112.256-125.354667-33.578667 30.08-112.298666 0.341334 0.213333 0.341333 0.170667 1.28 0.682666z m108.629333 31.701333l5.290667 0.426667-5.290667-0.426667z m-49.877333-8.704l7.765333 1.962667 3.2 0.725333-10.965333-2.688z m-15.317334-4.565333l2.56 0.853333a284.757333 284.757333 0 0 1-2.56-0.853333z m-11.264-3.968l1.28 0.512z m-25.045333-10.88l0.981333 0.554667 1.066667 0.469333-2.048-1.024z m249.770667-0.725333l-3.584 1.792 3.584-1.792z m33.152-19.754667l-3.925334 2.688a274.346667 274.346667 0 0 0 3.925334-2.688z m-321.28-265.557333c-23.296 86.997333 29.568 176.725333 118.144 200.448 88.533333 23.765333 179.2-27.52 202.538666-114.517334 23.296-86.997333-29.610667-176.725333-118.144-200.448-88.533333-23.765333-179.2 27.52-202.538666 114.517334z m-71.509334 188.970666l1.408 2.133334-1.408-2.133334z m479.104-22.357333l-2.474666 4.736 1.493333-2.688 0.981333-2.048z m6.912-14.677333l-1.066666 2.474666 1.493333-3.413333-0.426667 0.938667z m5.76-14.293334l-1.194666 3.2 1.194666-3.2z m-524.117333-17.066666l2.304 6.997333 1.109333 3.072-3.413333-10.069333z m534.101333-17.28l-2.688 11.264 1.877334-7.509334 0.810666-3.754666z m5.077334-30.634667l-0.341334 2.986667-0.128 1.066666 0.426667-4.053333zM121.344 449.834667l-0.384 1.578666-1.024 4.778667 1.408-6.357333z m0.554667-2.389334l-0.213334 0.853334-0.341333 1.536 0.554667-2.389334z m529.706666-23.338666l3.498667 10.282666-2.304-6.954666-1.194667-3.328zM132.181333 414.122667a268.16 268.16 0 0 0-0.384 0.981333z m507.605334-18.133334l1.706666 3.584-0.810666-1.749333a274.090667 274.090667 0 0 0-0.853334-1.834667zM147.285333 381.354667l-2.517333 4.693333-1.152 2.261333 3.669333-6.954666z m0.384-0.725334l-0.128 0.170667-0.256 0.554667 0.384-0.725334z m473.173334-17.536l1.92 2.901334-1.109334-1.664-0.853333-1.237334z m-8.32-11.648l1.194666 1.578667-0.341333-0.469333a278.272 278.272 0 0 0-0.853333-1.109334z m-7.424-9.514666l1.706666 2.133333a276.352 276.352 0 0 0-1.706666-2.133333zM221.866667 295.253333l-1.493334 1.109334 0.597334-0.426667 0.853333-0.682667z m10.410666-7.424a274.517333 274.517333 0 0 0-0.725333 0.469334z m11.008-7.125333l-0.768 0.469333 0.768-0.469333z m12.373334-7.168l-0.682667 0.426667-1.194667 0.597333 1.877334-1.024z m257.536-4.522667l7.509333 3.882667-0.426667-0.256-4.736-2.432-2.346666-1.194667z m-14.549334-6.656l1.408 0.597334a281.002667 281.002667 0 0 0-1.706666-0.725334l0.298666 0.128z m-13.866666-5.461333l2.901333 1.066667a283.52 283.52 0 0 0-2.901333-1.066667z m-10.965334-3.712l0.64 0.213333z m-25.258666-6.784l12.672 3.114667-6.698667-1.706667-5.973333-1.408z m-13.226667-2.56l1.92 0.298667-1.92-0.298667z m-14.677333-2.133333l2.090666 0.256a307.541333 307.541333 0 0 0-2.090666-0.256z m-11.178667-1.066667l1.834667 0.170667a279.893333 279.893333 0 0 0-1.834667-0.170667zM819.2 665.6h51.157333v-102.442667L819.2 563.2v102.4z m0-204.8h51.157333V358.4H819.2v102.4z m0 358.4H768V204.8h51.2V256h51.157333l0.042667-51.2h102.4v614.4h-102.4l-0.042667-51.2H819.2v51.2z" p-id="1740"></path></svg>