<?xml version="1.0" encoding="UTF-8"?>
<svg width="218px" height="20px" viewBox="0 0 218 20" version="1.1" xmlns="http://www.w3.org/2000/svg" xmlns:xlink="http://www.w3.org/1999/xlink">
    <!-- Generator: Sketch 63.1 (92452) - https://sketch.com -->
    <title>京东城市视频大数据引擎</title>
    <desc>Created with Sketch.</desc>
    <g id="页面-1" stroke="none" stroke-width="1" fill="none" fill-rule="evenodd" fill-opacity="0.87">
        <g id="智能配置-车辆布控" transform="translate(-54.000000, -22.000000)" fill="#EBEFFF" fill-rule="nonzero">
            <g id="Group-2">
                <g id="navbar">
                    <g id="京东城市视频大数据引擎-2" transform="translate(54.000000, 22.000000)">
                        <path d="M18.3425909,4.45833333 L18.3425909,2.54166667 L11.1927645,2.54166667 L11.2923442,2.47916667 C10.9073025,1.65972222 10.5288994,0.833333333 10.157135,0 L7.56806139,0.375 C7.6875571,0.833333333 7.86680066,1.27083333 8.10579207,1.6875 C8.33150618,2.04861111 8.6236068,2.33333333 8.98209392,2.54166667 L0.716974237,2.54166667 L0.716974237,4.45833333 L18.3425909,4.45833333 Z M8.22528778,19.1041667 C8.7298252,19.1041667 9.23436263,19.0555556 9.73890005,18.9583333 C9.99116877,18.9027778 10.2367988,18.8125 10.4757902,18.6875 C10.728059,18.5208333 10.9139412,18.2916667 11.0334369,18 C11.1529326,17.6388889 11.2126804,17.2777778 11.2126804,16.9166667 L11.2126804,12.4791667 L13.8017541,12.4791667 C14.2266277,12.4930556 14.6515013,12.4513889 15.0763749,12.3541667 C15.3950301,12.2708333 15.6937694,12.1388889 15.9725927,11.9583333 C16.384189,11.5972222 16.5899872,11.1319444 16.5899872,10.5625 L16.5899872,6.0625 L2.42974603,6.0625 L2.42974603,12.4791667 L8.38461538,12.4791667 L8.38461538,16.0625 C8.38461538,16.2430556 8.37133808,16.4166667 8.34478348,16.5833333 C8.31822888,16.7083333 8.26511968,16.8194444 8.18545587,16.9166667 C8.07923747,17.0138889 7.95974176,17.0763889 7.82696876,17.1041667 C7.68091845,17.1180556 7.53486814,17.125 7.38881783,17.125 L5.63621414,17.0208333 L5.63621414,18.0625 C6.04781046,18.3958333 6.49923869,18.6666667 6.99049881,18.875 C7.38881783,19.0138889 7.80041415,19.0902778 8.22528778,19.1041667 Z M13.8017541,10.5625 L5.21797917,10.5625 L5.21797917,7.97916667 L13.8017541,7.97916667 L13.8017541,10.5625 Z M18.5218345,18.625 L19.2188927,17.4791667 C18.3160363,16.7430556 17.4397345,15.9791667 16.5899872,15.1875 C15.7004081,14.3680556 14.790913,13.5625 13.8615019,12.7708333 L12.2283939,14.3958333 C12.4673853,14.6180556 12.7130154,14.8402778 12.9652841,15.0625 C13.5627627,15.6180556 14.1801571,16.1458333 14.8174676,16.6458333 C15.2157866,16.9513889 15.6273829,17.2291667 16.0522565,17.4791667 C16.82234,17.9652778 17.6455326,18.3472222 18.5218345,18.625 Z M0.597478531,18.6666667 C1.67293989,18.3472222 2.66873744,17.8541667 3.58487119,17.1875 C4.76655095,16.3263889 5.82209635,15.3125 6.7515074,14.1458333 L4.72008039,12.7708333 C3.96327426,13.7013889 3.16663621,14.5833333 2.33016627,15.4166667 C1.59991473,16.1527778 0.823192643,16.8194444 0,17.4166667 L0.597478531,18.6666667 Z M28.2209026,19.0416667 C28.6988854,19.0416667 29.1768683,18.9930556 29.6548511,18.8958333 C30.0000609,18.8125 30.3120775,18.6527778 30.5909008,18.4166667 C30.7635057,18.2361111 30.8962787,18.0208333 30.9892198,17.7708333 C31.1219928,17.3402778 31.1883793,16.9027778 31.1883793,16.4583333 L31.1883793,11.2708333 L37.0635849,11.2708333 L37.0635849,9.27083333 L31.1883793,9.27083333 L31.1883793,5.72916667 L28.5993057,5.72916667 L28.5993057,9.27083333 L23.9190572,9.27083333 C24.5165357,8.8125 25.0409891,8.27777778 25.4924173,7.66666667 C26.1430051,6.79166667 26.7471222,5.875 27.3047689,4.91666667 L37.9000548,4.91666667 L37.9000548,2.91666667 L28.4001462,2.91666667 C28.7320787,2.27777778 29.0374566,1.61805556 29.3162799,0.9375 L26.5678787,0.104166667 C26.1562824,1.0625 25.7181314,2 25.2534259,2.91666667 L20.8121688,2.91666667 L20.8121688,4.91666667 L24.2177965,4.91666667 C23.7530909,5.79166667 23.2618308,6.65277778 22.7440161,7.5 C22.3722517,8.11111111 21.9739326,8.69444444 21.549059,9.25 L21.549059,11.2708333 L28.5993057,11.2708333 L28.5993057,15.9375 C28.5993057,16.1458333 28.5793897,16.3472222 28.5395578,16.5416667 C28.5130032,16.6944444 28.4532554,16.8194444 28.3603143,16.9166667 C28.2806505,17 28.194348,17.0555556 28.1014069,17.0833333 C27.9022474,17.125 27.7030879,17.1458333 27.5039284,17.1458333 L25.7314087,17.0416667 L25.7314087,18.0416667 C26.1297278,18.3611111 26.5678787,18.625 27.0458615,18.8333333 C27.4176259,18.9722222 27.8093063,19.0416667 28.2209026,19.0416667 Z M20.4735977,18.5833333 C21.6021682,18.2222222 22.631159,17.6527778 23.5605701,16.875 C24.131494,16.4027778 24.6692247,15.8819444 25.1737621,15.3125 C25.7048541,14.6875 26.2093916,14.0277778 26.6873744,13.3333333 L24.4966198,11.9166667 C23.7663682,13.0138889 22.9830075,14.0625 22.1465375,15.0625 C21.4295633,15.9097222 20.6594799,16.6805556 19.8362872,17.375 L20.4735977,18.5833333 Z M38.1589622,18.4166667 L38.8759364,17.2708333 C37.1764419,15.5069444 35.4902247,13.7291667 33.8172849,11.9375 L31.8655217,13.4583333 C33.604848,15.5972222 35.7026616,17.25 38.1589622,18.4166667 Z M44.1735794,19.2708333 C44.7843352,18.7430556 45.3685365,18.1805556 45.9261831,17.5833333 C46.5236616,16.9444444 47.0215604,16.2222222 47.4198794,15.4166667 C47.7518119,14.6388889 47.9908033,13.8333333 48.1368536,13 C48.2696267,12.0277778 48.3426518,11.0416667 48.3559291,10.0416667 L49.4911383,10.0416667 C49.4911383,11.3055556 49.4513064,12.5555556 49.3716426,13.7916667 C49.345088,14.0277778 49.3185334,14.2638889 49.2919788,14.5 C49.2654242,14.6527778 49.212315,14.7986111 49.1326512,14.9375 C49.0662647,15.0069444 48.9799622,15.0625 48.8737438,15.1041667 C48.6878616,15.1597222 48.5019794,15.1805556 48.3160972,15.1666667 L47.7783665,15.0625 L47.7783665,16.0625 C47.9642487,16.3680556 48.1899628,16.6388889 48.4555089,16.875 C48.6281138,17 48.8206346,17.0625 49.0330714,17.0625 C49.365004,17.0763889 49.7035751,17.0486111 50.0487849,16.9791667 C50.2744991,16.9375 50.4935745,16.8541667 50.7060113,16.7291667 C50.2678604,17.1736111 49.8230708,17.6180556 49.3716426,18.0625 L49.9691211,18.9791667 C51.2835739,18.1597222 52.478531,17.1805556 53.5539923,16.0416667 C53.673488,16.3611111 53.806261,16.6666667 53.9523113,16.9583333 C54.2311347,17.5972222 54.6161764,18.1666667 55.1074365,18.6666667 C55.4792009,19 55.9239905,19.1736111 56.4418052,19.1875 C56.6807966,19.1736111 56.9065107,19.0972222 57.1189476,18.9583333 C57.3844936,18.75 57.6102077,18.5 57.7960899,18.2083333 C57.9819721,17.9166667 58.154577,17.6041667 58.3139046,17.2708333 C58.5794506,16.6875 58.8317193,16.0763889 59.0707108,15.4375 L57.9952494,15.4375 C57.7960899,15.8958333 57.5570985,16.3194444 57.2782752,16.7083333 C57.1189476,16.9305556 56.9131494,17.0416667 56.6608807,17.0416667 C56.275839,16.7361111 55.9970157,16.3472222 55.8244107,15.875 C55.572142,15.2222222 55.3597052,14.5486111 55.1871003,13.8541667 C55.7314696,12.9513889 56.2094525,12.0069444 56.6210488,11.0208333 C57.1255862,9.72916667 57.5703758,8.40972222 57.9554175,7.0625 L55.704915,6.83333333 C55.3729825,8.11111111 54.9813021,9.35416667 54.5298739,10.5625 C54.2643279,8.90972222 54.0784457,7.23611111 53.9722273,5.54166667 L58.0948292,5.54166667 L58.0948292,3.58333333 L56.95962,3.58333333 L57.5570985,2.75 C57.2649979,2.41666667 56.9795359,2.08333333 56.7007126,1.75 C56.3023936,1.25 55.8974359,0.756944444 55.4858396,0.270833333 L53.8328156,1.45833333 C53.8726475,1.51388889 53.9124794,1.56944444 53.9523113,1.625 C54.3107985,2.11111111 54.7223948,2.53472222 55.1871003,2.89583333 C55.6650831,3.22916667 56.1895365,3.45833333 56.7604604,3.58333333 L53.8527316,3.58333333 C53.7863451,2.52777778 53.7398745,1.46527778 53.7133199,0.395833333 L51.2039101,0.395833333 C51.243742,1.46527778 51.3034899,2.52777778 51.3831537,3.58333333 L45.8465193,3.58333333 L45.8465193,8.89583333 C45.8465193,9.97916667 45.8066874,11.0625 45.7270236,12.1458333 C45.6871917,12.6625 45.6210707,13.1716667 45.5286607,13.6733333 L45.4422255,14.1010417 L45.3087886,12.75 L43.9943358,13.2083333 L43.9943358,7.45833333 L45.3884524,7.45833333 L45.3884524,5.5 L43.9943358,5.5 L43.9943358,0.6875 L41.7239174,0.6875 L41.7239174,5.5 L40.270053,5.5 L40.270053,7.45833333 L41.7239174,7.45833333 L41.7239174,13.9583333 C41.1131616,14.1805556 40.5024057,14.3680556 39.8916499,14.5208333 L40.3298008,16.5625 C40.5024057,16.4930556 40.6816493,16.4305556 40.8675315,16.375 C41.8898837,16.0138889 42.8923199,15.6041667 43.8748401,15.1458333 C44.3209574,14.9458333 44.745831,14.6969444 45.149461,14.3991667 L45.4243011,14.1854167 L45.3087886,14.6666667 L45.3087886,14.6666667 C45.149461,15.25 44.9436628,15.8125 44.6913941,16.3541667 C44.3063524,17.1597222 43.8615628,17.9305556 43.3570254,18.6666667 L44.1735794,19.2708333 Z M51.3234058,16.0208333 C51.4827334,15.6041667 51.5623972,15.1666667 51.5623972,14.7083333 L51.8013886,8.0625 L48.3559291,8.0625 L48.3559291,5.54166667 L51.5623972,5.54166667 C51.6951702,7 51.8677751,8.44444444 52.0802119,9.875 C52.2926488,11.2222222 52.5648334,12.5486111 52.8967659,13.8541667 C52.4187831,14.6180556 51.8943297,15.3402778 51.3234058,16.0208333 Z M69.2676777,19.1875 C69.6659967,19.1875 70.0045679,19.0416667 70.2833912,18.75 C70.495828,18.4722222 70.6020464,18.1527778 70.6020464,17.7916667 L70.6020464,9.14583333 L74.2665814,9.14583333 L74.2665814,13.7291667 C74.2665814,13.9791667 74.2599427,14.2222222 74.2466654,14.4583333 C74.2333881,14.625 74.1935562,14.7708333 74.1271697,14.8958333 C74.0607832,14.9791667 73.9811194,15.0347222 73.8881783,15.0625 C73.7022961,15.1180556 73.5097753,15.1388889 73.3106158,15.125 L71.4783483,15.0208333 L71.4783483,16.0833333 C71.8766673,16.4444444 72.3081795,16.7291667 72.7728851,16.9375 C73.1446495,17.0763889 73.5363299,17.1458333 73.9479262,17.1458333 C74.4524636,17.1458333 74.957001,17.0972222 75.4615385,17 C75.8200256,16.9166667 76.1320421,16.75 76.3975882,16.5 C76.5701931,16.3055556 76.7029661,16.0763889 76.7959072,15.8125 C76.9154029,15.3680556 76.9751507,14.9027778 76.9751507,14.4166667 L76.9751507,7.125 L70.6020464,7.125 L70.6020464,4.70833333 L78.090444,4.70833333 L78.090444,2.72916667 L70.9406176,2.72916667 L71.1397771,2.625 C70.7016262,1.79166667 70.2833912,0.9375 69.8850722,0.0625 L67.2959985,0.4375 C67.4420488,0.951388889 67.6611243,1.42361111 67.9532249,1.85416667 C68.2586028,2.25694444 68.6436446,2.54861111 69.1083501,2.72916667 L60.4249954,2.72916667 L60.4249954,4.70833333 L67.933309,4.70833333 L67.933309,7.125 L61.5801206,7.125 L61.5801206,17.0833333 L62.9144893,17.0833333 C63.2596991,17.0972222 63.565077,16.9930556 63.8306231,16.7708333 C64.1094464,16.4791667 64.248858,16.1180556 64.248858,15.6875 L64.248858,9.14583333 L67.933309,9.14583333 L67.933309,19.1875 L69.2676777,19.1875 Z M84.2245569,3.75 L85.0610269,3.27083333 C84.5963213,2.24305556 84.1648091,1.20138889 83.76649,0.145833333 L81.3964919,0.645833333 C81.5956514,1.32638889 81.9076679,1.94444444 82.3325416,2.5 C82.8636336,3.05555556 83.4943054,3.47222222 84.2245569,3.75 Z M88.7255618,13.1458333 C89.0442171,13.1597222 89.3230404,13.0555556 89.5620318,12.8333333 C89.8143005,12.5555556 89.9404349,12.2152778 89.9404349,11.8125 L89.9404349,3.29166667 L94.8596748,3.29166667 L94.8596748,13.1041667 L96.0745478,13.1041667 C96.4330349,13.1180556 96.7384128,12.9861111 96.9906815,12.7083333 C97.189841,12.4305556 97.2894208,12.1180556 97.2894208,11.7708333 L97.2894208,1.29166667 L87.5306048,1.29166667 L87.5306048,13.1458333 L88.7255618,13.1458333 Z M83.2685913,19.2291667 C83.5739692,19.2291667 83.8527925,19.1180556 84.1050612,18.8958333 C84.3573299,18.6319444 84.4834643,18.3055556 84.4834643,17.9166667 L84.4834643,11.25 C85.1871612,11.8194444 85.9572447,12.2708333 86.7937146,12.6041667 L87.4111091,11.5625 C86.5348072,10.6458333 85.68506,9.70833333 84.8618673,8.75 C85.4062367,7.84722222 85.9041355,6.90277778 86.3555637,5.91666667 L86.3555637,3.875 L80.3011146,3.875 L80.3011146,5.91666667 L83.5474146,5.91666667 C83.0295999,7.125 82.4321213,8.27777778 81.754979,9.375 C81.1043913,10.4166667 80.3409465,11.3541667 79.4646446,12.1875 L79.8629636,13.6041667 C80.6330471,13.1736111 81.3632986,12.6597222 82.0537183,12.0625 L82.0537183,19.2291667 L83.2685913,19.2291667 Z M85.9771606,19.5 C87.1190085,18.9861111 88.2143858,18.3611111 89.2632925,17.625 C90.2192582,16.9722222 91.0490895,16.1597222 91.7527864,15.1875 L91.7527864,16.5833333 C91.7395091,16.9722222 91.779341,17.3541667 91.8722821,17.7291667 C91.9386686,17.9375 92.044887,18.1319444 92.1909373,18.3125 C92.3768195,18.5347222 92.6091723,18.6875 92.8879956,18.7708333 C93.2464827,18.8680556 93.6116085,18.9166667 93.9833729,18.9166667 L95.8355564,18.9166667 C96.26043,18.9166667 96.678665,18.8402778 97.0902613,18.6875 C97.3292527,18.5763889 97.5284122,18.4166667 97.6877398,18.2083333 C97.9400085,17.8611111 98.1192521,17.4930556 98.2254705,17.1041667 C98.3715208,16.5069444 98.4976552,15.8958333 98.6038736,15.2708333 L97.4089165,15.2708333 C97.2894208,15.7430556 97.0968999,16.1666667 96.8313539,16.5416667 C96.6189171,16.7916667 96.3666484,16.9166667 96.0745478,16.9166667 L95.4372373,16.9166667 C95.1982459,16.9305556 94.9658932,16.9166667 94.7401791,16.875 C94.6339607,16.8472222 94.5343809,16.7986111 94.4414398,16.7291667 C94.3352214,16.6319444 94.2621962,16.5069444 94.2223643,16.3541667 C94.1825324,16.1597222 94.1692551,15.9583333 94.1825324,15.75 L94.1825324,11.5833333 L93.2464827,11.5833333 C93.4323649,10.5972222 93.5319447,9.59027778 93.545222,8.5625 C93.5717766,7.14583333 93.5916926,5.72222222 93.6049699,4.29166667 L91.0756441,4.29166667 C91.0623668,5.65277778 91.0358122,7 90.9959803,8.33333333 C90.9428711,9.45833333 90.8100981,10.5694444 90.5976612,11.6666667 C90.3985017,12.6111111 90.0732079,13.5 89.6217796,14.3333333 C89.0906876,15.1944444 88.4467385,15.9513889 87.6899324,16.6041667 C86.9596809,17.2013889 86.2028747,17.75 85.419514,18.25 L85.9771606,19.5 Z M100.157318,19.3958333 C101.046897,19.1319444 101.91656,18.8055556 102.766307,18.4166667 C103.775382,17.9444444 104.698155,17.3472222 105.534625,16.625 C106.331263,15.8888889 107.021682,15.0555556 107.605883,14.125 C108.203362,13.1111111 108.707899,12.0347222 109.119496,10.8958333 L109.119496,14.8333333 L110.274621,14.8333333 C110.579999,14.8472222 110.845545,14.75 111.071259,14.5416667 C111.323528,14.2777778 111.449662,13.9513889 111.449662,13.5625 L111.449662,7.02083333 L115.173945,7.02083333 L115.173945,14.8333333 L116.348986,14.8333333 C116.654364,14.8472222 116.91991,14.75 117.145624,14.5416667 C117.397893,14.2777778 117.524027,13.9513889 117.524027,13.5625 L117.524027,5.14583333 L113.202266,5.14583333 C113.813021,4.67361111 114.244534,4.05555556 114.496802,3.29166667 L117.942262,3.29166667 L117.942262,1.41666667 L108.840672,1.41666667 L108.840672,3.29166667 L112.047141,3.29166667 C111.90109,3.91666667 111.75504,4.53472222 111.60899,5.14583333 L109.119496,5.14583333 L109.119496,10.7708333 L106.948657,10.3333333 C106.643279,11.2222222 106.284792,12.0694444 105.873196,12.875 L105.873196,9.16666667 L108.601681,9.16666667 L108.601681,7.29166667 L106.171935,7.29166667 L106.171935,4.83333333 L108.26311,4.83333333 L108.26311,2.97916667 L106.171935,2.97916667 L106.171935,0.520833333 L103.98118,0.520833333 L103.98118,7.29166667 L103.124794,7.29166667 L103.124794,2.16666667 L100.93404,2.16666667 L100.93404,7.29166667 L99.9581582,7.29166667 L99.9581582,9.16666667 L103.602777,9.16666667 L103.602777,10.4791667 L101.491686,10.0625 C101.119922,11.0347222 100.728242,12 100.316645,12.9583333 C100.051099,13.5694444 99.7523601,14.1527778 99.4204276,14.7083333 L100.117486,15.3958333 C100.874292,14.9791667 101.52488,14.4236111 102.069249,13.7291667 C102.746391,12.8402778 103.257567,11.8472222 103.602777,10.75 L103.602777,14.125 L104.737986,14.125 C104.857482,14.1388889 104.976978,14.1319444 105.096474,14.1041667 C104.498995,14.8958333 103.808575,15.5833333 103.025215,16.1666667 C101.963031,16.9444444 100.827821,17.6041667 99.6195871,18.1458333 L100.157318,19.3958333 Z M107.805043,19.4166667 C108.946891,19.0972222 110.035629,18.6388889 111.071259,18.0416667 C111.960838,17.5277778 112.717644,16.8472222 113.341677,16 C114.138315,16.7916667 114.994701,17.5069444 115.910835,18.1458333 C116.587977,18.5902778 117.304952,18.9444444 118.061758,19.2083333 L118.63932,18.0208333 C117.670077,17.2291667 116.734028,16.4027778 115.831171,15.5416667 C115.286802,15.0277778 114.742433,14.5208333 114.198063,14.0208333 C114.370668,13.3263889 114.456971,12.6111111 114.456971,11.875 L114.456971,7.85416667 L112.166636,7.85416667 L112.166636,11.8125 C112.166636,12.4236111 112.10025,13.0277778 111.967477,13.625 C111.794872,14.25 111.529326,14.8263889 111.170839,15.3541667 C110.679579,15.9930556 110.102016,16.5416667 109.438151,17 C108.761009,17.4305556 108.06395,17.8194444 107.346976,18.1666667 L107.805043,19.4166667 Z M120.332176,19.25 C122.363603,18.4166667 124.229064,17.2847222 125.928558,15.8541667 C127.256288,14.7013889 128.338388,13.3263889 129.174858,11.7291667 C130.037883,13.4652778 131.199647,14.9375 132.66015,16.1458333 C134.240149,17.4097222 135.966198,18.4097222 137.838297,19.1458333 L138.455692,17.75 C137.566112,17.2777778 136.716365,16.75 135.90645,16.1666667 C134.950484,15.4583333 134.080821,14.6527778 133.29746,13.75 C131.863512,12.0277778 130.880992,10.0555556 130.3499,7.83333333 C130.363177,7.69444444 130.376454,7.54166667 130.389731,7.375 L137.599306,7.375 L137.599306,5.25 L130.449479,5.25 L130.449479,0.5 L127.54175,0.5 L127.54175,5.25 L120.431756,5.25 L120.431756,7.375 L127.482003,7.375 C127.362507,8.26388889 127.163347,9.125 126.884524,9.95833333 C126.472928,11.0555556 125.92192,12.0833333 125.2315,13.0416667 C124.501249,14.0138889 123.678056,14.8888889 122.761922,15.6666667 C121.805957,16.4722222 120.790243,17.1805556 119.714782,17.7916667 L120.332176,19.25 Z M157.79408,19.3125 L158.371643,18.1458333 C157.561727,17.4652778 156.804921,16.7430556 156.101224,15.9791667 C155.543578,15.3680556 155.045679,14.7013889 154.607528,13.9791667 C155.244838,12.9375 155.736098,11.8194444 156.081308,10.625 C156.506182,9.02777778 156.785005,7.38888889 156.917778,5.70833333 L157.913576,5.70833333 L157.913576,3.66666667 L153.153663,3.66666667 C153.498873,2.69444444 153.777697,1.69444444 153.990133,0.666666667 L151.560387,0.479166667 C151.294841,1.89583333 150.923077,3.27083333 150.445094,4.60416667 C150.033498,5.78472222 149.535599,6.90972222 148.951398,7.97916667 L149.568792,8.95833333 C149.834338,8.75 150.086607,8.52083333 150.325598,8.27083333 C150.591144,10.2569444 151.208539,12.1111111 152.177782,13.8333333 C151.142152,15.3888889 149.894086,16.7083333 148.433583,17.7916667 L148.712406,17.0416667 C148.141482,16.6944444 147.557281,16.3611111 146.959803,16.0416667 C147.358122,15.6388889 147.70997,15.1875 148.015348,14.6875 C148.347281,14.1458333 148.64602,13.5763889 148.911566,12.9791667 L148.911566,11.3958333 L144.788964,11.3958333 C144.921737,11.0902778 145.047871,10.7777778 145.167367,10.4583333 L142.737621,9.95833333 C142.565016,10.4583333 142.372495,10.9375 142.160058,11.3958333 L139.869724,11.3958333 L139.869724,13.0625 L141.343504,13.0625 C141.011572,13.6597222 140.673001,14.2361111 140.327791,14.7916667 C141.310311,15.3611111 142.326025,15.875 143.374931,16.3333333 C142.777453,16.6944444 142.160058,17 141.522748,17.25 C140.819051,17.5555556 140.108716,17.8263889 139.391741,18.0625 L139.770144,19.2708333 C140.832328,19.0486111 141.881235,18.7638889 142.916865,18.4166667 C143.806444,18.1111111 144.66283,17.7152778 145.486022,17.2291667 C146.322492,17.5486111 147.172239,17.8472222 148.035264,18.125 L148.592911,19.2708333 C149.588708,18.6875 150.544674,18.0416667 151.460808,17.3333333 C152.151227,16.8194444 152.795176,16.2361111 153.392655,15.5833333 C154.003411,16.3472222 154.687192,17.0347222 155.443998,17.6458333 C156.187527,18.2569444 156.970887,18.8125 157.79408,19.3125 Z M139.670565,10.8125 C141.157622,10.4097222 142.478714,9.65972222 143.633839,8.5625 L143.633839,10.0833333 L144.80888,10.0833333 C145.15409,10.0972222 145.44619,9.97222222 145.685182,9.70833333 C145.884341,9.45833333 145.983921,9.16666667 145.983921,8.83333333 L145.983921,8.41666667 C146.767282,9.27777778 147.716609,9.84722222 148.831902,10.125 L149.369633,9.22916667 L146.919971,6.66666667 L145.983921,7.47916667 L145.983921,6.54166667 L149.190389,6.5625 L149.190389,4.875 L145.983921,4.85416667 L145.983921,0.645833333 L143.633839,0.645833333 L143.633839,4.83333333 L139.949388,4.8125 L139.949388,6.5 L143.275352,6.52083333 C142.120227,7.8125 140.799135,8.86111111 139.312077,9.66666667 L139.670565,10.8125 Z M142.837201,4.39583333 L143.454595,3.79166667 C142.896949,2.875 142.352579,1.94444444 141.821487,1 L140.188379,1.875 C140.440648,2.41666667 140.772581,2.90277778 141.184177,3.33333333 C141.675437,3.79166667 142.226445,4.14583333 142.837201,4.39583333 Z M146.5814,4.47916667 C147.258542,4.20138889 147.875936,3.82638889 148.433583,3.35416667 C148.871734,2.9375 149.243498,2.45833333 149.548876,1.91666667 L147.756441,1.02083333 C147.172239,1.96527778 146.588038,2.90277778 146.003837,3.83333333 L146.5814,4.47916667 Z M153.332907,11.4791667 C152.682319,9.6875 152.284,7.82638889 152.13795,5.89583333 C152.151227,5.84027778 152.18442,5.77777778 152.23753,5.70833333 L154.587612,5.70833333 C154.481394,6.83333333 154.308789,7.94444444 154.069797,9.04166667 C153.883915,9.875 153.638285,10.6875 153.332907,11.4791667 Z M144.928376,15.125 C144.131738,14.8333333 143.328461,14.5763889 142.518546,14.3541667 C142.996528,13.9791667 143.434679,13.5486111 143.832998,13.0625 L146.262744,13.0625 C145.930812,13.8402778 145.486022,14.5277778 144.928376,15.125 Z M163.051891,18.9791667 C163.397101,18.8680556 163.689202,18.6736111 163.928193,18.3958333 L164.724831,19.1041667 C165.654242,18.3263889 166.444241,17.4375 167.094829,16.4375 C167.758694,15.3263889 168.196845,14.1180556 168.409282,12.8125 L168.409282,18.8333333 L174.76247,18.8333333 C175.054571,18.8333333 175.346672,18.8055556 175.638772,18.75 C175.957427,18.6944444 176.249528,18.5902778 176.515074,18.4375 C176.740788,18.2986111 176.920032,18.1111111 177.052805,17.875 C177.159023,17.625 177.218771,17.3611111 177.232048,17.0833333 L177.232048,12.2708333 L174.065412,12.2708333 L174.065412,10.4791667 L177.968938,10.4791667 L177.968938,8.6875 L174.065412,8.6875 L174.065412,7.375 L171.575918,7.375 L171.575918,8.6875 L168.727937,8.6875 L168.727937,6.95833333 L175.041294,6.95833333 C175.426335,6.97222222 175.818016,6.93055556 176.216335,6.83333333 C176.508435,6.76388889 176.78062,6.63888889 177.032889,6.45833333 C177.404653,6.125 177.590535,5.69444444 177.590535,5.16666667 L177.590535,1.45833333 L166.238443,1.45833333 L166.238443,7.45833333 C166.238443,8.63888889 166.198611,9.81944444 166.118948,11 C166.065838,11.7083333 165.979536,12.4166667 165.86004,13.125 C165.56794,14.7777778 165.02357,16.3263889 164.226932,17.7708333 C164.306596,17.4513889 164.353067,17.1319444 164.366344,16.8125 L164.366344,10.5625 C164.884159,10.2847222 165.36878,9.94444444 165.820208,9.54166667 L165.521469,8.125 L164.366344,8.625 L164.366344,6.125 L165.740544,6.125 L165.740544,4.14583333 L164.366344,4.14583333 L164.366344,0.625 L161.837018,0.625 L161.837018,4.14583333 L159.984835,4.14583333 L159.984835,6.125 L161.837018,6.125 L161.837018,9.66666667 C161.053657,9.98611111 160.270297,10.2847222 159.486936,10.5625 L160.044582,12.6041667 C160.642061,12.3541667 161.23954,12.0902778 161.837018,11.8125 L161.837018,16.2291667 C161.837018,16.4236111 161.823741,16.6111111 161.797186,16.7916667 C161.770632,16.9305556 161.717522,17.0416667 161.637859,17.125 C161.584749,17.1805556 161.518363,17.2291667 161.438699,17.2708333 C161.279371,17.3125 161.120044,17.3333333 160.960716,17.3333333 L159.964919,17.2291667 L159.964919,18.1458333 C160.20391,18.3819444 160.469456,18.5902778 160.761557,18.7708333 C161.04038,18.9375 161.339119,19.0416667 161.657775,19.0833333 C162.12248,19.1388889 162.587186,19.1041667 163.051891,18.9791667 Z M175.041294,5.16666667 L168.727937,5.16666667 L168.727937,3.25 L175.041294,3.25 L175.041294,5.16666667 Z M171.575918,12.2708333 L168.488946,12.2708333 C168.56861,11.6875 168.628357,11.0902778 168.668189,10.4791667 L171.575918,10.4791667 L171.575918,12.2708333 Z M174.76247,17.0833333 L170.87886,17.0833333 L170.87886,14.0625 L174.76247,14.0625 L174.76247,17.0833333 Z M194.957245,19.1041667 C195.329009,19.1041667 195.654303,18.9791667 195.933126,18.7291667 C196.238504,18.4236111 196.391193,18.0486111 196.391193,17.6041667 L196.391193,0.708333333 L193.523296,0.708333333 L193.523296,19.1041667 L194.957245,19.1041667 Z M186.253974,18.8125 C186.917839,18.8125 187.581704,18.7569444 188.245569,18.6458333 C188.577502,18.5763889 188.902796,18.4513889 189.221451,18.2708333 C189.553383,18.0486111 189.799013,17.7430556 189.958341,17.3541667 C190.130946,16.8680556 190.230526,16.3541667 190.25708,15.8125 C190.376576,13.9652778 190.482794,12.1111111 190.575735,10.25 L183.465741,10.25 L183.625069,7.79166667 L187.727754,7.79166667 C188.165905,7.80555556 188.604056,7.76388889 189.042207,7.66666667 C189.37414,7.58333333 189.679518,7.44444444 189.958341,7.25 C190.383215,6.88888889 190.595651,6.41666667 190.595651,5.83333333 L190.595651,1.29166667 L181.075827,1.29166667 L181.075827,3.29166667 L187.727754,3.29166667 L187.727754,5.83333333 L180.996163,5.83333333 L180.438516,12.25 L187.628175,12.25 C187.575065,13.2638889 187.521956,14.2638889 187.468847,15.25 C187.45557,15.5416667 187.402461,15.8263889 187.309519,16.1041667 C187.243133,16.3125 187.123637,16.4861111 186.951032,16.625 C186.804982,16.7222222 186.645654,16.7847222 186.47305,16.8125 C186.141117,16.8819444 185.815823,16.9097222 185.497168,16.8958333 L182.270784,16.7916667 L182.270784,17.7916667 C182.934649,18.125 183.625069,18.3888889 184.342043,18.5833333 C184.966076,18.7361111 185.603386,18.8125 186.253974,18.8125 Z M209.416225,10 C210.159754,9.86111111 210.896644,9.66666667 211.626896,9.41666667 C212.304038,9.16666667 212.961264,8.84722222 213.598575,8.45833333 C214.859918,9.22222222 216.214203,9.72222222 217.661429,9.95833333 L218,8.77083333 C216.897984,8.50694444 215.868993,8.05555556 214.913028,7.41666667 C215.829161,6.45833333 216.493026,5.32638889 216.904623,4.02083333 L217.641513,4.02083333 L217.641513,2.47916667 L212.941348,2.47916667 C213.246726,1.88194444 213.52555,1.26388889 213.777818,0.625 L211.587064,0.354166667 C211.281686,1.3125 210.903283,2.23611111 210.451855,3.125 C210.106645,3.77777778 209.695048,4.375 209.217066,4.91666667 C209.217066,4.79166667 209.223704,4.65972222 209.236982,4.52083333 L202.863877,4.52083333 L203.082953,4.125 L201.947743,3.83333333 L204.17833,3.83333333 L204.17833,3.16666667 L205.492783,3.16666667 L205.492783,4 L207.743285,4 L207.743285,3.16666667 L209.73488,3.16666667 L209.73488,1.77083333 L207.743285,1.77083333 L207.743285,0.583333333 L205.492783,0.583333333 L205.492783,1.77083333 L204.17833,1.77083333 L204.17833,0.583333333 L201.927828,0.583333333 L201.927828,1.77083333 L199.776905,1.77083333 L199.776905,3.16666667 L201.927828,3.16666667 L201.927828,3.83333333 L201.151105,3.625 C200.805896,4.30555556 200.420854,4.95833333 199.99598,5.58333333 C199.717157,6 199.398502,6.36805556 199.040015,6.6875 L199.338754,7.6875 C199.790182,7.5625 200.221694,7.35416667 200.633291,7.0625 L200.633291,9.5625 L204.238078,9.5625 C204.57001,9.57638889 204.895304,9.53472222 205.213959,9.4375 C205.439674,9.36805556 205.632194,9.25 205.791522,9.08333333 L205.791522,9.3125 C206.176564,9.67361111 206.627992,9.86805556 207.145807,9.89583333 C207.411353,9.90972222 207.683537,9.89583333 207.962361,9.85416667 C208.16152,9.82638889 208.354041,9.77083333 208.539923,9.6875 C208.845301,9.49305556 209.024545,9.20833333 209.077654,8.83333333 L209.416225,10 Z M213.538827,6.22916667 C212.954626,5.59027778 212.496559,4.85416667 212.164626,4.02083333 L214.713868,4.02083333 C214.435045,4.84027778 214.043364,5.57638889 213.538827,6.22916667 Z M209.077654,8.83333333 C209.090931,8.70833333 209.104209,8.57638889 209.117486,8.4375 C209.130763,7.32638889 209.163956,6.21527778 209.217066,5.10416667 L209.615385,6 C210.000426,5.80555556 210.372191,5.5625 210.730678,5.27083333 C211.128997,6.07638889 211.640173,6.78472222 212.264206,7.39583333 C211.85261,7.6875 211.421098,7.9375 210.969669,8.14583333 C210.345636,8.42361111 209.714964,8.65277778 209.077654,8.83333333 Z M206.249589,8.79166667 L205.990682,8.72916667 C206.030513,8.60416667 206.050429,8.47222222 206.050429,8.33333333 L206.050429,6.4375 L201.370181,6.4375 C201.542786,6.28472222 201.708752,6.11111111 201.86808,5.91666667 L207.185639,5.91666667 C207.119252,6.59722222 207.072782,7.27083333 207.046227,7.9375 C207.046227,8.1875 206.986479,8.41666667 206.866983,8.625 C206.681101,8.76388889 206.475303,8.81944444 206.249589,8.79166667 Z M204.317742,8.33333333 L202.465558,8.33333333 L202.465558,7.625 L204.317742,7.625 L204.317742,8.33333333 Z M207.603874,19.25 C208.081856,19.25 208.553201,19.2013889 209.017906,19.1041667 C209.256897,19.0486111 209.482612,18.9513889 209.695048,18.8125 C209.93404,18.6319444 210.100006,18.4027778 210.192947,18.125 C210.285888,17.75 210.332359,17.375 210.332359,17 L210.332359,16.5 L217.502101,16.5 L217.502101,15 L210.332359,15 L210.332359,14.1666667 L215.669834,14.1666667 L215.669834,12.6666667 L210.332359,12.6666667 L210.332359,11.875 C212.217736,11.8055556 214.103112,11.6875 215.988489,11.5208333 L215.709666,9.95833333 C213.492356,10.1666667 211.275047,10.3194444 209.057738,10.4166667 C206.322614,10.5555556 203.58749,10.625 200.852366,10.625 L200.951946,11.7291667 C203.19581,11.9375 205.446312,12.0069444 207.703453,11.9375 L207.703453,12.6666667 L201.688836,12.6666667 L201.688836,14.1666667 L207.703453,14.1666667 L207.703453,15 L199.876485,15 L199.876485,16.5 L207.703453,16.5 L207.703453,16.6666667 C207.703453,16.875 207.683537,17.0694444 207.643705,17.25 C207.617151,17.375 207.557403,17.4861111 207.464462,17.5833333 C207.384798,17.6388889 207.291857,17.6805556 207.185639,17.7083333 C206.999756,17.75 206.807236,17.7708333 206.608076,17.7708333 L204.516901,17.6666667 L204.516901,18.4583333 C205.472867,18.9722222 206.501858,19.2361111 207.603874,19.25 Z" id="京东城市视频大数据引擎"></path>
                    </g>
                </g>
            </g>
        </g>
    </g>
</svg>